<?xml version="1.0" encoding="UTF-8"?>
<svg id="Layer_2" data-name="Layer 2" xmlns="http://www.w3.org/2000/svg" viewBox="0 0 125.93 77.64">
  <defs>
    <style>
      .cls-1 {
        fill: #f16263;
      }

      .cls-2 {
        fill: none;
        stroke: #f16263;
        stroke-miterlimit: 10;
        stroke-width: 1.19px;
      }

      .cls-3 {
        fill: #024a70;
      }

      .cls-4 {
        fill: #a5a4a4;
      }
    </style>
  </defs>
  <g id="Layer_1-2" data-name="Layer 1">
    <g>
      <g>
        <g>
          <g>
            <path class="cls-3" d="M10.03,56.98c.13.19.29.33.48.42.19.08.51.16.94.21.06.01.11.04.16.08.05.05.08.13.08.24,0,.03,0,.09,0,.17,0,.08-.01.14-.03.19-.19-.01-.41-.02-.64-.03-.23-.01-.47-.02-.7-.03s-.46-.01-.68-.02c-.22,0-.4,0-.55,0-.37,0-.79,0-1.27.02-.48.01-.94.03-1.38.07-.02-.05-.03-.1-.03-.15v-.14c0-.11.02-.19.06-.24.04-.04.09-.07.15-.08.31-.06.54-.12.68-.19.15-.07.22-.17.22-.29,0-.1-.05-.22-.15-.36l-2.17-3.41-2.14,3.11c-.09.13-.16.24-.21.34s-.08.2-.08.29c0,.12.07.22.21.3s.36.14.67.2c.06.01.11.04.15.08s.07.12.07.25v.14c0,.06-.01.11-.03.15-.3-.02-.62-.04-.98-.06-.36-.02-.68-.03-.95-.03s-.57,0-.89.02c-.32.01-.64.03-.96.07-.02-.05-.03-.1-.03-.16v-.15c0-.19.07-.3.22-.33.31-.06.57-.14.8-.26.22-.11.39-.25.49-.41l3.05-4.42-2.86-4.36c-.1-.16-.25-.29-.45-.38-.19-.09-.49-.15-.89-.19-.16-.01-.24-.12-.24-.34v-.14c0-.06.01-.11.03-.17.17.01.37.02.59.03.22.01.44.02.67.03.22,0,.43.01.63.02.2,0,.37,0,.5,0,.15,0,.33,0,.56,0,.22,0,.46-.01.72-.02s.51-.01.76-.03c.25-.01.48-.02.68-.03.01.06.02.11.03.17,0,.06,0,.1,0,.14,0,.21-.07.31-.21.33-.57.05-.86.17-.86.38,0,.1.05.23.15.38l1.87,2.99,1.93-2.81c.07-.1.12-.19.16-.27.04-.07.06-.15.06-.21,0-.22-.29-.37-.86-.46-.15-.01-.22-.12-.22-.33,0-.03,0-.08,0-.14s.01-.11.03-.17c.34.03.69.06,1.05.07.36.01.66.02.92.02.33,0,.64,0,.94-.02.3-.01.58-.03.84-.07.01.06.02.12.03.18s0,.11,0,.15c0,.1-.02.18-.07.23-.05.05-.1.08-.15.09-.33.04-.6.1-.8.2-.21.1-.38.24-.51.44l-2.77,3.9,3.18,4.79Z"/>
            <path class="cls-3" d="M18.67,53.25h-.74v3.58c0,.26.11.45.33.56.22.11.6.2,1.14.27.16.02.24.14.24.34,0,.09-.01.19-.03.31-.33-.02-.74-.04-1.24-.06-.5-.02-1.04-.03-1.62-.03-.41,0-.81,0-1.19.03-.38.02-.74.04-1.07.06-.02-.05-.03-.1-.03-.15v-.14c0-.19.06-.3.19-.33.24-.05.43-.09.58-.13.15-.04.26-.08.34-.14.08-.05.13-.11.16-.19.03-.07.04-.17.04-.28v-8.57c0-.23-.08-.39-.25-.5s-.48-.18-.95-.24c-.06-.02-.1-.06-.14-.1s-.05-.13-.05-.24v-.15c0-.06.01-.1.03-.14.32.02.69.04,1.1.06.42.02.79.03,1.12.03h2.58c.6,0,1.15.07,1.63.22s.89.36,1.22.63c.34.27.59.6.77.98.18.38.27.79.27,1.25,0,.61-.19,1.16-.56,1.65s-.88.87-1.53,1.12l2.69,3.92c.21.3.44.5.71.62.27.11.52.2.74.26.06.01.1.04.14.08s.05.11.05.21v.15c0,.06-.01.11-.03.17-.13-.01-.3-.02-.53-.03-.23,0-.46-.01-.71-.03-.25-.01-.49-.02-.74-.03-.25,0-.45,0-.61,0-.24,0-.48-.1-.72-.3s-.47-.46-.7-.8l-2.65-3.92ZM18.45,52.39c.35,0,.67-.03.96-.1s.53-.19.74-.35c.21-.17.36-.38.47-.66.11-.27.16-.62.16-1.04,0-.71-.17-1.27-.51-1.68-.34-.41-.95-.62-1.81-.62h-.51v4.45h.51Z"/>
            <path class="cls-3" d="M31.3,53.62c.03.21.05.38.05.53,0,.51-.14.77-.41.77h-3.41c-.02-.1-.04-.23-.05-.38s-.02-.26-.02-.33c0-.23.04-.38.12-.47.08-.08.18-.13.31-.13h3.41Z"/>
            <path class="cls-3" d="M42.08,49.86c-.1.03-.21.05-.33.05-.16,0-.27-.03-.34-.09-.07-.06-.11-.13-.14-.2-.26-.65-.6-1.12-1.02-1.4s-.97-.43-1.67-.43c-.55,0-1.01.13-1.39.4-.38.27-.57.68-.57,1.22,0,.42.15.76.44,1.02.29.26.66.48,1.1.68.44.19.91.38,1.42.56.51.18.98.41,1.42.68.44.27.8.62,1.1,1.04s.44.96.44,1.63c0,.43-.07.86-.22,1.27-.15.41-.38.77-.7,1.09-.32.31-.72.56-1.21.75-.49.19-1.08.28-1.76.28-.75,0-1.43-.08-2.02-.24-.59-.16-1.08-.34-1.47-.53-.03-.49-.09-.97-.16-1.44s-.16-.93-.25-1.38c.11-.05.25-.07.39-.07.14,0,.24.03.31.08.07.05.12.14.17.27.15.43.31.81.5,1.12.18.31.39.57.63.77.24.2.52.35.83.44.31.09.68.14,1.09.14.35,0,.66-.05.91-.15.25-.1.46-.23.62-.39s.28-.35.36-.57c.08-.22.12-.44.12-.67,0-.49-.14-.88-.42-1.16-.28-.28-.63-.51-1.04-.7s-.87-.37-1.35-.53c-.48-.17-.94-.38-1.35-.63-.42-.26-.76-.59-1.04-.99-.28-.41-.42-.95-.42-1.64,0-.46.08-.88.25-1.28.17-.39.41-.74.73-1.03.32-.29.7-.52,1.16-.69.45-.17.97-.26,1.55-.26.48,0,.96.05,1.45.15.48.1,1.04.27,1.65.51.02.34.06.73.11,1.16s.11.81.18,1.16Z"/>
            <path class="cls-3" d="M49.5,47.94v4.12h2.41c.22,0,.36-.09.44-.26.08-.18.15-.46.21-.86.01-.09.05-.15.1-.18.06-.03.13-.04.22-.04.03,0,.09,0,.16,0s.13.01.16.03c-.02.26-.04.57-.06.92-.02.35-.03.64-.03.88,0,.21,0,.45.02.73.01.28.03.6.07.95-.03.02-.09.04-.16.04s-.13,0-.16,0c-.21,0-.31-.08-.33-.24-.07-.43-.15-.73-.23-.88s-.23-.23-.42-.23h-2.41v3.83c0,.24.15.4.44.48.3.08.8.12,1.51.12h.72c.34,0,.63-.05.86-.14.23-.09.44-.22.62-.39.18-.17.34-.36.48-.58.14-.22.27-.47.41-.75.03-.08.11-.12.24-.12.06,0,.13.02.21.05.08.03.16.07.24.1-.02.09-.05.18-.08.26-.03.08-.05.16-.08.24-.06.12-.1.26-.14.41s-.07.27-.1.36c-.02.11-.05.24-.08.38-.03.14-.06.28-.09.41-.03.13-.06.25-.09.35s-.05.17-.06.21c-.05.09-.14.14-.27.14-.09,0-.22,0-.39-.02-.17-.01-.36-.02-.56-.03-.2,0-.4-.01-.61-.03-.21-.01-.38-.02-.53-.02h-3.88c-.33,0-.71,0-1.14.03-.43.02-.81.04-1.15.06-.02-.05-.03-.11-.03-.18v-.16c0-.17.06-.26.17-.27.43-.08.74-.17.93-.26.19-.09.28-.25.28-.48v-8.57c0-.11-.02-.21-.05-.28s-.1-.14-.2-.19c-.1-.05-.22-.1-.38-.14-.15-.04-.35-.08-.59-.13-.11-.03-.17-.14-.17-.31v-.16c0-.05.01-.11.03-.16.49.03.92.06,1.3.07.38.01.7.02.98.02h3.51c.51,0,.96-.02,1.33-.05s.62-.05.76-.05c.13,0,.22.05.27.15.03.09.06.26.09.5.02.25.06.5.12.76.03.19.07.38.12.57s.11.41.21.67c-.06.02-.12.05-.19.07-.07.02-.14.03-.21.03-.13,0-.22-.05-.27-.15-.14-.3-.27-.55-.4-.76-.13-.21-.28-.38-.45-.51-.17-.13-.36-.22-.58-.28-.22-.06-.49-.09-.8-.09h-2.28Z"/>
            <path class="cls-3" d="M62.68,53.25h-.74v3.58c0,.26.11.45.33.56.22.11.6.2,1.14.27.16.02.24.14.24.34,0,.09-.01.19-.03.31-.33-.02-.74-.04-1.24-.06-.5-.02-1.04-.03-1.62-.03-.41,0-.81,0-1.19.03-.38.02-.74.04-1.07.06-.02-.05-.03-.1-.03-.15v-.14c0-.19.06-.3.19-.33.24-.05.43-.09.58-.13.15-.04.26-.08.34-.14.08-.05.13-.11.16-.19.03-.07.04-.17.04-.28v-8.57c0-.23-.08-.39-.25-.5s-.48-.18-.95-.24c-.06-.02-.1-.06-.14-.1s-.05-.13-.05-.24v-.15c0-.06.01-.1.03-.14.32.02.69.04,1.1.06.42.02.79.03,1.12.03h2.58c.6,0,1.15.07,1.63.22s.89.36,1.22.63c.34.27.59.6.77.98.18.38.27.79.27,1.25,0,.61-.19,1.16-.56,1.65s-.88.87-1.53,1.12l2.69,3.92c.21.3.44.5.71.62.27.11.52.2.74.26.06.01.1.04.14.08s.05.11.05.21v.15c0,.06-.01.11-.03.17-.13-.01-.3-.02-.53-.03-.23,0-.46-.01-.71-.03-.25-.01-.49-.02-.74-.03-.25,0-.45,0-.61,0-.24,0-.48-.1-.72-.3s-.47-.46-.7-.8l-2.65-3.92ZM62.46,52.39c.35,0,.67-.03.96-.1s.53-.19.74-.35c.21-.17.36-.38.47-.66.11-.27.16-.62.16-1.04,0-.71-.17-1.27-.51-1.68-.34-.41-.95-.62-1.81-.62h-.51v4.45h.51Z"/>
            <path class="cls-3" d="M78.95,48.52c.06-.15.09-.27.09-.36,0-.16-.07-.28-.22-.35-.15-.07-.41-.13-.77-.18-.14-.01-.21-.12-.21-.33,0-.02,0-.05,0-.08,0-.03,0-.06,0-.09l.02-.14c.1.01.23.02.38.03.15.01.31.02.49.03.18,0,.35.01.53.02.18,0,.34,0,.49,0,.33,0,.65,0,.95-.02.3-.01.56-.03.78-.07l.02.14s.02.07.02.1v.09c0,.22-.07.33-.21.34-.37.03-.62.09-.78.18-.15.09-.28.24-.37.45l-4.23,10.1c-.06.01-.1.02-.14.02h-.12c-.09,0-.16-.02-.2-.05s-.08-.11-.13-.24l-4-9.91c-.03-.08-.07-.15-.11-.21s-.1-.12-.18-.16c-.08-.04-.19-.08-.32-.11-.13-.03-.31-.05-.52-.08-.15-.01-.22-.13-.22-.36v-.15c0-.06.01-.11.03-.15.17.01.37.02.58.03.22.01.44.02.66.03s.44.01.65.02c.21,0,.4,0,.56,0,.38,0,.79,0,1.23-.03.44-.02.84-.04,1.2-.06.02.06.03.11.03.17v.14c0,.21-.07.31-.21.33-.37.03-.62.09-.77.17-.15.08-.22.19-.22.33,0,.08.02.17.05.27l2.5,6.76,2.65-6.64Z"/>
            <path class="cls-3" d="M87.72,56.94c0,.11,0,.21.03.28.02.08.06.14.14.2.07.06.18.11.33.15.14.04.33.08.57.11.11.02.17.12.17.29,0,.03,0,.08,0,.15,0,.07-.01.13-.03.17-.37-.02-.76-.04-1.17-.06-.42-.02-.78-.03-1.1-.03s-.7,0-1.11.03c-.41.02-.8.04-1.16.06-.02-.05-.03-.1-.03-.17v-.15c0-.18.06-.28.17-.29.24-.03.43-.07.57-.11s.25-.09.32-.15c.07-.06.11-.12.14-.2.02-.07.03-.17.03-.28v-8.57c0-.11-.01-.21-.03-.28s-.07-.14-.14-.2c-.07-.06-.17-.11-.32-.15s-.33-.08-.57-.11c-.11-.03-.17-.13-.17-.29v-.15c0-.07.01-.13.03-.19.36.02.75.04,1.16.06.41.02.78.03,1.11.03s.69,0,1.1-.03c.42-.02.81-.04,1.17-.06.01.06.02.12.03.19,0,.07,0,.12,0,.15,0,.16-.06.26-.17.29-.24.03-.43.07-.57.11-.14.04-.25.09-.33.15-.07.06-.12.12-.14.2s-.03.17-.03.28v8.57Z"/>
            <path class="cls-3" d="M98.02,58.41c-.96,0-1.8-.15-2.52-.44-.72-.3-1.31-.7-1.78-1.22s-.82-1.13-1.05-1.83c-.23-.7-.35-1.46-.35-2.27,0-.67.11-1.35.34-2.04.23-.68.59-1.3,1.08-1.86.49-.55,1.12-1,1.88-1.35.76-.35,1.68-.52,2.74-.52.58,0,1.13.04,1.63.12.51.08,1.06.2,1.65.36.02.31.07.7.14,1.18.07.48.17.95.29,1.4-.06.01-.13.03-.22.04-.09.02-.16.03-.21.03-.09,0-.17-.01-.23-.04s-.11-.09-.13-.18c-.13-.38-.27-.69-.43-.95s-.35-.46-.57-.62c-.22-.15-.48-.26-.78-.33-.3-.07-.64-.1-1.04-.1-.62,0-1.16.11-1.63.32-.47.21-.87.51-1.19.91s-.56.87-.73,1.42c-.17.55-.25,1.18-.25,1.87,0,.74.1,1.43.3,2.07s.47,1.19.82,1.66.76.83,1.24,1.09,1,.39,1.56.39c.46,0,.85-.04,1.17-.13.33-.09.6-.22.84-.39s.43-.4.6-.68c.17-.27.32-.59.45-.96.03-.09.09-.16.16-.2s.15-.06.23-.06c.06,0,.13,0,.21.03.09.02.16.04.21.06-.07.19-.14.41-.21.66-.07.25-.15.5-.23.75-.08.26-.15.51-.21.77-.06.26-.12.5-.16.74-.56.1-1.13.18-1.71.22-.58.05-1.22.07-1.92.07Z"/>
            <path class="cls-3" d="M109.26,47.94v4.12h2.41c.22,0,.36-.09.44-.26.08-.18.15-.46.21-.86.01-.09.05-.15.1-.18.06-.03.13-.04.22-.04.03,0,.09,0,.16,0s.13.01.16.03c-.02.26-.04.57-.06.92-.02.35-.03.64-.03.88,0,.21,0,.45.02.73.01.28.03.6.07.95-.03.02-.09.04-.16.04s-.13,0-.16,0c-.21,0-.31-.08-.33-.24-.07-.43-.15-.73-.23-.88s-.23-.23-.42-.23h-2.41v3.83c0,.24.15.4.44.48.3.08.8.12,1.51.12h.72c.34,0,.63-.05.86-.14.23-.09.44-.22.62-.39.18-.17.34-.36.48-.58.14-.22.27-.47.41-.75.03-.08.11-.12.24-.12.06,0,.13.02.21.05.08.03.16.07.24.1-.02.09-.05.18-.08.26-.03.08-.05.16-.08.24-.06.12-.1.26-.14.41s-.07.27-.1.36c-.02.11-.05.24-.08.38-.03.14-.06.28-.09.41-.03.13-.06.25-.09.35s-.05.17-.06.21c-.05.09-.14.14-.27.14-.09,0-.22,0-.39-.02-.17-.01-.36-.02-.56-.03-.2,0-.4-.01-.61-.03-.21-.01-.38-.02-.53-.02h-3.88c-.33,0-.71,0-1.14.03-.43.02-.81.04-1.15.06-.02-.05-.03-.11-.03-.18v-.16c0-.17.06-.26.17-.27.43-.08.74-.17.93-.26.19-.09.28-.25.28-.48v-8.57c0-.11-.02-.21-.05-.28s-.1-.14-.2-.19c-.1-.05-.22-.1-.38-.14-.15-.04-.35-.08-.59-.13-.11-.03-.17-.14-.17-.31v-.16c0-.05.01-.11.03-.16.49.03.92.06,1.3.07.38.01.7.02.98.02h3.51c.51,0,.96-.02,1.33-.05s.62-.05.76-.05c.13,0,.22.05.27.15.03.09.06.26.09.5.02.25.06.5.12.76.03.19.07.38.12.57s.11.41.21.67c-.06.02-.12.05-.19.07-.07.02-.14.03-.21.03-.13,0-.22-.05-.27-.15-.14-.3-.27-.55-.4-.76-.13-.21-.28-.38-.45-.51-.17-.13-.36-.22-.58-.28-.22-.06-.49-.09-.8-.09h-2.28Z"/>
            <path class="cls-3" d="M125.48,49.86c-.1.03-.21.05-.33.05-.16,0-.27-.03-.34-.09-.07-.06-.11-.13-.14-.2-.26-.65-.6-1.12-1.02-1.4s-.97-.43-1.67-.43c-.55,0-1.01.13-1.39.4-.38.27-.57.68-.57,1.22,0,.42.15.76.44,1.02.29.26.66.48,1.1.68.44.19.91.38,1.42.56.51.18.98.41,1.42.68.44.27.8.62,1.1,1.04s.44.96.44,1.63c0,.43-.07.86-.22,1.27-.15.41-.38.77-.7,1.09-.32.31-.72.56-1.21.75-.49.19-1.08.28-1.76.28-.75,0-1.43-.08-2.02-.24-.59-.16-1.08-.34-1.47-.53-.03-.49-.09-.97-.16-1.44s-.16-.93-.25-1.38c.11-.05.25-.07.39-.07.14,0,.24.03.31.08.07.05.12.14.17.27.15.43.31.81.5,1.12.18.31.39.57.63.77.24.2.52.35.83.44.31.09.68.14,1.09.14.35,0,.66-.05.91-.15.25-.1.46-.23.62-.39s.28-.35.36-.57c.08-.22.12-.44.12-.67,0-.49-.14-.88-.42-1.16-.28-.28-.63-.51-1.04-.7s-.87-.37-1.35-.53c-.48-.17-.94-.38-1.35-.63-.42-.26-.76-.59-1.04-.99-.28-.41-.42-.95-.42-1.64,0-.46.08-.88.25-1.28.17-.39.41-.74.73-1.03.32-.29.7-.52,1.16-.69.45-.17.97-.26,1.55-.26.48,0,.96.05,1.45.15.48.1,1.04.27,1.65.51.02.34.06.73.11,1.16s.11.81.18,1.16Z"/>
            <path class="cls-3" d="M1.45,77.58h-.76l1.83-4.18h.65l1.82,4.18h-.79l-.4-.97h-1.93l-.41.97ZM2.83,74.3l-.71,1.7h1.43l-.7-1.7h-.01Z"/>
            <path class="cls-3" d="M10.02,76.48l.55.42c-.39.49-.92.74-1.58.74s-1.14-.2-1.54-.61c-.4-.41-.6-.92-.6-1.53s.2-1.12.6-1.53c.4-.41.91-.62,1.54-.62s1.15.21,1.51.63l-.55.43c-.26-.27-.58-.41-.95-.41-.4,0-.73.14-1,.42-.26.28-.4.64-.4,1.07s.13.78.4,1.07c.26.28.59.42.98.42s.75-.17,1.03-.5Z"/>
            <path class="cls-3" d="M15.79,76.48l.55.42c-.39.49-.92.74-1.58.74s-1.14-.2-1.54-.61c-.4-.41-.6-.92-.6-1.53s.2-1.12.6-1.53c.4-.41.91-.62,1.54-.62s1.15.21,1.51.63l-.55.43c-.26-.27-.58-.41-.95-.41-.4,0-.73.14-1,.42-.26.28-.4.64-.4,1.07s.13.78.4,1.07c.26.28.59.42.98.42s.75-.17,1.03-.5Z"/>
            <path class="cls-3" d="M20.59,77.64c-.63,0-1.15-.21-1.57-.62-.42-.41-.62-.92-.62-1.52s.21-1.12.62-1.53c.41-.41.94-.62,1.59-.62s1.14.21,1.56.62c.42.41.63.92.63,1.52s-.21,1.12-.62,1.53c-.41.41-.94.62-1.59.62ZM19.57,76.55c.28.28.62.42,1.04.42s.76-.14,1.03-.42c.27-.28.41-.63.41-1.06s-.14-.78-.41-1.06c-.28-.28-.62-.42-1.04-.42s-.76.14-1.03.42c-.27.28-.41.63-.41,1.06s.14.78.41,1.06Z"/>
            <path class="cls-3" d="M28.68,73.41v2.46c0,.54-.15.97-.46,1.29s-.73.47-1.25.47-.94-.16-1.25-.47c-.31-.31-.46-.74-.46-1.29v-2.47h.72v2.46c0,.34.09.62.27.81.18.2.42.29.73.29s.55-.1.73-.3.27-.47.27-.81v-2.46h.71Z"/>
            <path class="cls-3" d="M34.37,76.31h.02v-2.9h.7v4.17h-.61l-2.4-2.99h-.01v2.99h-.71v-4.17h.7l2.32,2.9Z"/>
            <path class="cls-3" d="M40.7,74.07h-1.27v3.51h-.72v-3.51h-1.27v-.66h3.26v.66Z"/>
            <path class="cls-3" d="M43.08,77.58v-4.17h.72v4.17h-.72Z"/>
            <path class="cls-3" d="M49.55,76.31h.02v-2.9h.7v4.17h-.61l-2.4-2.99h-.01v2.99h-.71v-4.17h.7l2.32,2.9Z"/>
            <path class="cls-3" d="M56.47,73.93l-.48.51c-.15-.15-.31-.26-.47-.33s-.36-.11-.61-.11c-.39,0-.71.14-.98.43-.26.28-.39.64-.39,1.06s.13.79.39,1.07c.26.28.59.42,1,.42.37,0,.69-.08.96-.23v-.92h-.89v-.62h1.6v1.95c-.54.31-1.09.47-1.67.47-.64,0-1.16-.2-1.55-.61-.39-.4-.58-.92-.58-1.54s.2-1.12.59-1.53c.4-.41.91-.62,1.54-.62.33,0,.62.05.86.14.24.09.47.24.69.44Z"/>
            <path class="cls-4" d="M65.51,76.7l.83.88h-.8l-.43-.45c-.36.34-.77.51-1.23.51-.42,0-.76-.1-1.02-.29-.26-.2-.39-.47-.39-.83,0-.45.3-.86.91-1.21-.3-.35-.45-.67-.45-.95,0-.31.1-.56.31-.74.2-.18.46-.26.78-.26s.59.08.79.26c.2.17.31.4.31.69,0,.23-.07.43-.22.6-.15.17-.35.34-.63.52l.82.84c.15-.25.27-.55.38-.92h.64c-.13.52-.33.97-.6,1.36ZM63.21,76.45c0,.19.07.33.2.44s.3.16.5.16c.31,0,.58-.11.81-.34l-.95-.99c-.18.1-.32.21-.41.32-.1.11-.15.25-.15.41ZM64.47,74.33c0-.14-.04-.25-.12-.32s-.19-.11-.32-.11c-.14,0-.25.04-.34.12-.09.08-.13.2-.13.35,0,.19.11.4.33.64.38-.24.58-.46.58-.68Z"/>
            <path class="cls-3" d="M74.99,76.48l.55.42c-.39.49-.92.74-1.58.74s-1.14-.2-1.54-.61c-.4-.41-.6-.92-.6-1.53s.2-1.12.6-1.53c.4-.41.91-.62,1.54-.62s1.15.21,1.51.63l-.55.43c-.26-.27-.58-.41-.95-.41-.4,0-.73.14-1,.42-.26.28-.4.64-.4,1.07s.13.78.4,1.07c.26.28.59.42.98.42s.75-.17,1.03-.5Z"/>
            <path class="cls-3" d="M79.79,77.64c-.63,0-1.15-.21-1.57-.62-.42-.41-.62-.92-.62-1.52s.21-1.12.62-1.53c.41-.41.94-.62,1.59-.62s1.14.21,1.56.62c.42.41.63.92.63,1.52s-.21,1.12-.62,1.53c-.41.41-.94.62-1.59.62ZM78.76,76.55c.28.28.62.42,1.04.42s.76-.14,1.03-.42c.27-.28.41-.63.41-1.06s-.14-.78-.41-1.06c-.28-.28-.62-.42-1.04-.42s-.76.14-1.03.42c-.27.28-.41.63-.41,1.06s.14.78.41,1.06Z"/>
            <path class="cls-3" d="M87.53,76.31h.02v-2.9h.7v4.17h-.61l-2.4-2.99h-.01v2.99h-.71v-4.17h.7l2.32,2.9Z"/>
            <path class="cls-3" d="M93.75,76.38c0,.4-.15.71-.44.93-.3.22-.65.33-1.07.33-.29,0-.57-.05-.85-.15-.27-.1-.5-.24-.68-.43l.5-.53c.12.12.27.23.46.31.19.09.38.13.56.13.21,0,.39-.04.55-.14.16-.09.24-.23.24-.4,0-.16-.06-.28-.18-.37-.12-.09-.32-.17-.6-.25-.2-.06-.38-.11-.53-.17s-.29-.14-.44-.24c-.14-.1-.25-.22-.33-.36-.08-.15-.11-.31-.11-.5,0-.38.13-.67.4-.88.27-.21.62-.31,1.04-.31.57,0,1.02.17,1.35.51l-.43.51c-.11-.11-.25-.2-.41-.26s-.33-.1-.5-.1c-.2,0-.37.04-.5.13-.13.09-.2.22-.2.38s.07.29.21.39c.14.1.38.19.71.28.84.22,1.26.62,1.26,1.2Z"/>
            <path class="cls-3" d="M99.61,73.41v2.46c0,.54-.15.97-.46,1.29s-.73.47-1.25.47-.94-.16-1.25-.47c-.31-.31-.46-.74-.46-1.29v-2.47h.72v2.46c0,.34.09.62.27.81.18.2.42.29.73.29s.55-.1.73-.3.27-.47.27-.81v-2.46h.71Z"/>
            <path class="cls-3" d="M102.28,77.58v-4.17h.71v3.49h2.02v.67h-2.74Z"/>
            <path class="cls-3" d="M109.71,74.07h-1.27v3.51h-.72v-3.51h-1.27v-.66h3.26v.66Z"/>
            <path class="cls-3" d="M112.08,77.58v-4.17h.72v4.17h-.72Z"/>
            <path class="cls-3" d="M118.55,76.31h.02v-2.9h.7v4.17h-.61l-2.4-2.99h-.01v2.99h-.71v-4.17h.7l2.32,2.9Z"/>
            <path class="cls-3" d="M125.47,73.93l-.48.51c-.15-.15-.31-.26-.47-.33s-.36-.11-.61-.11c-.39,0-.71.14-.98.43-.26.28-.39.64-.39,1.06s.13.79.39,1.07c.26.28.59.42,1,.42.37,0,.69-.08.96-.23v-.92h-.89v-.62h1.6v1.95c-.54.31-1.09.47-1.67.47-.64,0-1.16-.2-1.55-.61-.39-.4-.58-.92-.58-1.54s.2-1.12.59-1.53c.4-.41.91-.62,1.54-.62.33,0,.62.05.86.14.24.09.47.24.69.44Z"/>
          </g>
          <g>
            <path class="cls-3" d="M15.72,68.84l1.45-2.13-1.37-2.04h1.1l.83,1.31.84-1.31h1.07l-1.38,2.02,1.46,2.15h-1.1l-.92-1.42-.92,1.42h-1.06Z"/>
            <path class="cls-3" d="M20.31,68.84v-4.17h1.54c.88,0,1.61.39,1.61,1.29s-.7,1.29-1.58,1.29h-.62v1.59h-.94ZM21.25,66.46h.58c.32,0,.65-.11.65-.51s-.3-.49-.65-.49h-.57v1Z"/>
            <path class="cls-3" d="M23.93,66.76c0-1.22.91-2.14,2.25-2.14s2.24.92,2.24,2.14-.92,2.14-2.26,2.14-2.24-.92-2.24-2.14ZM27.44,66.76c0-.77-.54-1.29-1.28-1.29s-1.26.52-1.26,1.29.54,1.29,1.27,1.29,1.27-.52,1.27-1.29Z"/>
            <path class="cls-3" d="M30.11,64.67l2.04,2.52h.02v-2.52h.92v4.17h-.81l-2.15-2.65h-.01v2.65h-.92v-4.17h.92Z"/>
            <path class="cls-3" d="M33.85,66.76c0-1.22.91-2.14,2.25-2.14s2.24.92,2.24,2.14-.92,2.14-2.26,2.14-2.24-.92-2.24-2.14ZM37.36,66.76c0-.77-.54-1.29-1.28-1.29s-1.26.52-1.26,1.29.54,1.29,1.27,1.29,1.27-.52,1.27-1.29Z"/>
            <path class="cls-3" d="M42.58,64.67v4.17h-.94v-3.3h-1.59v3.3h-.94v-4.17h3.47Z"/>
            <path class="cls-3" d="M43.35,66.76c0-1.22.91-2.14,2.25-2.14s2.24.92,2.24,2.14-.92,2.14-2.26,2.14-2.24-.92-2.24-2.14ZM46.86,66.76c0-.77-.54-1.29-1.28-1.29s-1.26.52-1.26,1.29.54,1.29,1.27,1.29,1.27-.52,1.27-1.29Z"/>
            <path class="cls-3" d="M47.89,64.67h1.12l.89,1.54h.01l.91-1.54h1.09l-1.55,2.48v1.69h-.94v-1.69l-1.54-2.48Z"/>
            <path class="cls-3" d="M51.38,68.84l1.68-4.18h.82l1.67,4.18h-1.01l-1.08-2.93h-.01l-1.1,2.93h-.98Z"/>
            <path class="cls-3" d="M55.67,66.76c0-1.22.91-2.14,2.25-2.14s2.24.92,2.24,2.14-.92,2.14-2.26,2.14-2.24-.92-2.24-2.14ZM59.19,66.76c0-.77-.54-1.29-1.28-1.29s-1.26.52-1.26,1.29.54,1.29,1.27,1.29,1.27-.52,1.27-1.29Z"/>
            <path class="cls-3" d="M60.67,64.67h3.21v.85h-1.89l.99,1.14-1.15,1.33h2.11v.85h-3.36v-.73l1.2-1.4-1.11-1.3v-.74Z"/>
            <path class="cls-3" d="M70.31,68.84h-.99l-.33-.35c-.33.26-.72.41-1.12.41-.86,0-1.5-.35-1.5-1.12,0-.58.41-.94.84-1.21-.22-.27-.4-.6-.4-.93,0-.71.53-1.02,1.11-1.02.68,0,1.17.36,1.17,1,0,.51-.35.85-.76,1.11l.65.68c.15-.26.26-.54.32-.8h.8c-.09.49-.3.97-.6,1.37l.81.87ZM67.9,68.15c.22,0,.42-.08.6-.2l-.8-.86c-.21.13-.38.29-.38.58,0,.35.31.48.58.48ZM67.94,65.31c-.18,0-.34.11-.34.38,0,.19.13.38.24.52.24-.17.42-.36.42-.54,0-.26-.14-.36-.32-.36Z"/>
            <path class="cls-3" d="M72.53,64.67h3.21v.85h-1.89l.99,1.14-1.15,1.33h2.11v.85h-3.36v-.73l1.2-1.4-1.11-1.3v-.74Z"/>
            <path class="cls-3" d="M76.09,64.67h1.12l.89,1.54h.01l.91-1.54h1.09l-1.55,2.48v1.69h-.94v-1.69l-1.54-2.48Z"/>
            <path class="cls-3" d="M81.58,64.67l2.04,2.52h.02v-2.52h.92v4.17h-.81l-2.15-2.65h-.01v2.65h-.92v-4.17h.92Z"/>
            <path class="cls-3" d="M88.49,64.67v.85h-2.05v.76h1.83v.83h-1.83v.87h2.11v.86h-3.05v-4.17h2.99Z"/>
            <path class="cls-3" d="M89.32,68.84v-4.17h1.54c.88,0,1.61.39,1.61,1.29s-.7,1.29-1.58,1.29h-.62v1.59h-.94ZM90.26,66.46h.58c.32,0,.65-.11.65-.51s-.3-.49-.65-.49h-.57v1Z"/>
            <path class="cls-3" d="M93.11,64.67h2.85v.86h-1.91v3.31h-.94v-4.17Z"/>
            <path class="cls-3" d="M95.6,68.84l1.81-4.18h.82l1.8,4.18h-1.02l-.35-.86h-1.72l-.35.86h-.99ZM98.35,67.21l-.54-1.34h-.01l-.54,1.34h1.09Z"/>
            <path class="cls-3" d="M103.04,64.67v.86h-1.2v3.31h-.94v-3.31h-1.2v-.86h3.34Z"/>
            <path class="cls-3" d="M106.65,64.67v.85h-2.05v.76h1.83v.83h-1.83v.87h2.11v.86h-3.05v-4.17h2.99Z"/>
            <path class="cls-3" d="M107.39,64.67h3.21v.85h-1.89l.99,1.14-1.15,1.33h2.11v.85h-3.36v-.73l1.2-1.4-1.11-1.3v-.74Z"/>
          </g>
        </g>
        <line class="cls-2" x1="0" y1="67.01" x2="12.34" y2="67.01"/>
        <line class="cls-2" x1="113.59" y1="67.01" x2="125.93" y2="67.01"/>
      </g>
      <g>
        <polygon class="cls-1" points="57.82 .73 57.79 .73 57.06 .73 50.18 10.67 47.55 14.47 39.59 25.98 36.68 30.17 37.41 30.17 38.13 30.17 40.32 27.02 48.25 15.55 58.51 .73 57.82 .73"/>
        <polygon class="cls-3" points="37.4 22.84 31.58 22.84 36.68 30.17 39.59 25.98 37.4 22.84"/>
        <path class="cls-3" d="M45.78,3.97c-.16-.18-.25-.34-.27-.48-.03-.13-.04-.26-.04-.38,0-.36.2-.63.61-.78.4-.14.99-.26,1.75-.35.33-.07.5-.33.5-.78,0-.18-.03-.42-.09-.72-1.06.05-2.14.1-3.24.16-1.11.04-2.05.07-2.84.07-.72,0-1.62-.03-2.67-.07-1.06-.05-2.06-.1-3-.16-.07.3-.09.53-.09.72,0,.52.18.79.55.82,1.03.09,1.81.26,2.33.52.53.26.91.59,1.16.98l7.13,10.96,2.63-3.8-4.4-6.7Z"/>
        <path class="cls-3" d="M55.48,26.75c.22.25.33.52.33.82,0,.39-.23.69-.68.89-.46.2-1.06.36-1.77.52-.34.07-.51.3-.51.73,0,.18.04.42.09.72,1.07-.05,2.15-.1,3.27-.16,1.12-.04,2.08-.06,2.91-.06.34,0,.74.01,1.22.03.48.01.99.03,1.52.04.52.01,1.06.04,1.59.07.52.04,1.02.07,1.47.09.05-.3.09-.56.09-.77,0-.23-.07-.42-.21-.52-.13-.1-.27-.17-.43-.21-1.09-.18-1.86-.38-2.33-.59-.47-.21-.85-.52-1.12-.95l-7.95-12.34-2.62,3.78,5.12,7.92Z"/>
        <path class="cls-3" d="M94.97,20.88c-.03-.18-.04-.35-.07-.52,0-.05-.01-.09-.01-.13-.01-.05-.03-.13-.04-.2,0-.08-.01-.13-.03-.2,0-.05-.01-.09-.03-.14-.04-.12-.07-.26-.1-.39,0-.01,0-.03-.01-.04-.03-.09-.05-.21-.09-.31-.05-.12-.09-.22-.12-.33h-.01c-.08-.22-.17-.44-.27-.65-.33-.61-.73-1.17-1.25-1.69-.13-.16-.3-.3-.46-.43-.09-.09-.18-.17-.29-.26-.13-.1-.27-.21-.42-.31h0c-.16-.12-.3-.23-.46-.34-.14-.12-.3-.21-.46-.31-.17-.12-.35-.23-.55-.35-.18-.1-.39-.23-.59-.33-.13-.08-.26-.16-.39-.22-.03-.01-.05-.03-.07-.03s-.01-.01-.03,0c-.79-.43-1.67-.82-2.64-1.21-.14-.05-.29-.1-.43-.17-.14-.05-.27-.12-.4-.17-.27-.1-.53-.22-.78-.35-.21-.09-.39-.18-.57-.26-.2-.09-.38-.18-.55-.27-.18-.08-.36-.17-.53-.27-.21-.1-.42-.22-.6-.34-.31-.18-.61-.38-.89-.55-.17-.13-.31-.23-.47-.34-.14-.12-.27-.23-.4-.35-.13-.13-.26-.26-.36-.38-.1-.12-.2-.23-.29-.35-.01-.03-.04-.05-.04-.09-.05-.05-.09-.12-.13-.18-.04-.06-.07-.13-.1-.2-.08-.14-.14-.27-.2-.43v-.04c-.05-.12-.09-.23-.12-.36-.07-.21-.09-.43-.1-.68-.01-.13-.03-.26-.03-.4s.01-.29.03-.43c0-.04,0-.08.01-.12.01-.12.03-.23.07-.35.04-.2.09-.38.18-.56.04-.12.08-.22.14-.33.05-.09.1-.18.16-.27s.12-.17.17-.25c.03-.04.05-.08.09-.12.05-.08.12-.14.17-.21.17-.18.35-.35.56-.52.23-.18.48-.34.77-.48h.01c.27-.14.56-.26.89-.35.64-.2,1.32-.29,2.05-.29,1.85,0,3.31.38,4.38,1.16.66.48,1.26,1.12,1.81,1.93.09.13.17.26.26.4h0c.09.14.18.3.26.44.08.16.17.3.23.47.08.14.16.3.23.46h0c.04.1.1.2.17.27h0s.05.08.09.12c.01,0,.01.01.03.01.04.04.05.06.1.1.13.12.33.18.57.21.09,0,.18.01.29.01.14,0,.35-.03.65-.09h.03c-.1-.52-.2-1.06-.27-1.62-.05-.35-.09-.73-.14-1.11,0-.05,0-.12-.01-.18,0-.01-.01-.04-.01-.07-.04-.46-.09-.92-.12-1.35-.05-.51-.09-1-.12-1.47-.12-.04-.21-.08-.33-.1-1.49-.57-2.83-.98-4.03-1.24-.98-.2-2.01-.3-3.06-.35-.12-.01-.23-.01-.35-.03-.08-.01-.16-.01-.22-.01h-.39c-.17,0-.35,0-.52.01-.47.01-.95.07-1.39.16-.16.01-.3.05-.46.09-.14.03-.3.05-.44.09-.04.01-.08.03-.1.04-.2.04-.38.1-.56.17-.05.03-.1.05-.16.06h-.01c-.13.05-.25.1-.38.16-.13.05-.25.12-.38.18-.76.36-1.42.82-1.99,1.37-.39.35-.73.74-1,1.17-.3.42-.55.87-.74,1.35-.1.25-.2.5-.26.74-.12.38-.2.76-.26,1.16-.07.39-.09.81-.09,1.21,0,.47.03.91.09,1.34.07.42.14.81.26,1.19h0c.07.26.16.49.26.73.4.91.96,1.72,1.72,2.4.1.09.21.17.33.25h0c.17.16.35.3.53.43.07.04.12.09.18.13.21.14.42.29.64.43.17.1.35.21.53.3.16.09.3.2.47.27,1.06.52,2.23,1.03,3.5,1.5.64.25,1.24.48,1.78.74h.01c.36.16.7.33,1.03.51.17.09.31.18.47.27.31.18.59.38.83.56h.01c.16.12.29.25.42.35.13.12.25.23.38.35.23.23.43.51.59.79.17.29.3.59.4.91.14.5.22,1.03.22,1.6,0,.52-.08,1-.21,1.47-.05.16-.09.3-.16.46-.08.18-.17.38-.27.56-.21.38-.48.73-.79,1.06-.48.47-1.08.85-1.8,1.12-.63.23-1.34.36-2.16.39h-12.6l-4.96-7.26c3.73-1.58,6.32-5.18,6.32-9.65,0-4.1-2.23-7.52-5.5-9.24-1.28-.68-2.72-1.09-4.26-1.17-.21-.04-.43-.04-.65-.04h-.94l-2.5,3.61h3.41c.5,0,.98.06,1.45.2.22.05.46.13.68.22.22.09.43.2.64.31.98.53,1.81,1.37,2.4,2.41.57,1.04.91,2.31.91,3.7,0,4-2.74,6.83-6.07,6.83h-2.74l8.35,12.17h15.67c.21,0,.43-.01.65-.01h.17c.26-.01.51-.05.76-.08.09,0,.18,0,.26-.01.3-.04.6-.08.89-.12h.03c.46-.08.89-.17,1.3-.29.16-.05.31-.1.48-.16,1.25-.46,2.28-1.08,3.07-1.86.09-.1.21-.21.27-.33.29-.3.53-.61.74-.94,0-.01,0-.03.01-.03.05-.09.1-.2.16-.3.01-.01.03-.03.03-.04.09-.17.17-.33.25-.48,0-.01,0-.03.01-.04.1-.21.18-.42.26-.64h0c.38-1.07.56-2.21.56-3.44,0-.18-.01-.36-.01-.53Z"/>
        <polygon class="cls-4" points="58.51 .73 48.25 15.55 40.32 27.02 38.13 30.17 42.52 30.17 50.36 18.82 52.98 15.05 52.97 15.02 60.38 4.34 62.88 .73 58.51 .73"/>
      </g>
    </g>
  </g>
</svg>